<svg width="152" height="141" viewBox="0 0 152 141" fill="none" xmlns="http://www.w3.org/2000/svg">
<rect x="14" width="125" height="23.2587" fill="white"/>
<rect x="21" y="16.18" width="10" height="59.6637" fill="white"/>
<rect x="123" y="16.18" width="10" height="59.6637" fill="white"/>
<path d="M25.5276 140.5C19.1611 140.5 14 138.55 14 131.826C14 125.103 19.1611 119.652 25.5276 119.652C31.8941 119.652 37.0552 125.103 37.0552 131.826C37.0552 138.55 31.8941 140.5 25.5276 140.5Z" fill="white"/>
<rect x="14" y="88" width="23.0552" height="43.8261" fill="white"/>
<path d="M127.528 139.5C121.161 139.5 116 137.55 116 130.826C116 124.103 121.161 118.652 127.528 118.652C133.894 118.652 139.055 124.103 139.055 130.826C139.055 137.55 133.894 139.5 127.528 139.5Z" fill="white"/>
<path d="M116 87H139.055V130.826H116V87Z" fill="white"/>
<path fill-rule="evenodd" clip-rule="evenodd" d="M123 76C123 76.0061 123 76.0121 123 76.0182C123 76.0243 123 76.0303 123 76.0364V76ZM123.011 76.5599C123.308 83.7876 129.529 89.5599 137.159 89.5599C144.789 89.5599 151.009 83.7876 151.306 76.5599H123.011Z" fill="white"/>
<path fill-rule="evenodd" clip-rule="evenodd" d="M0 76.5641C0.297275 83.7919 6.51758 89.5641 14.1475 89.5641C21.7774 89.5641 27.9977 83.7919 28.295 76.5641H0ZM28.3061 76.0449C28.3061 76.0374 28.3061 76.03 28.3061 76.0225C28.3061 76.015 28.3061 76.0075 28.3061 76V76.0449Z" fill="white"/>
<path fill-rule="evenodd" clip-rule="evenodd" d="M26.0031 69C26.3073 59.0403 49.0228 51 77 51C104.977 51 127.693 59.0403 127.997 69H133V119H21V69H26.0031ZM107.5 85C100.596 85 95 79.4036 95 72.5C95 65.5964 100.596 60 107.5 60C114.404 60 120 65.5964 120 72.5C120 79.4036 114.404 85 107.5 85ZM34 72.5C34 79.4036 39.5964 85 46.5 85C53.4036 85 59 79.4036 59 72.5C59 65.5964 53.4036 60 46.5 60C39.5964 60 34 65.5964 34 72.5Z" fill="white"/>
</svg>
